<?xml version="1.0" encoding="utf-8"?>
<!-- Generator: Adobe Illustrator 27.1.1, SVG Export Plug-In . SVG Version: 6.00 Build 0)  -->
<svg version="1.1" id="Layer_2_00000098938937408487213710000017062607619603180721_"
	 xmlns="http://www.w3.org/2000/svg" xmlns:xlink="http://www.w3.org/1999/xlink" x="0px" y="0px" viewBox="0 0 510.2 155.9"
	 style="enable-background:new 0 0 510.2 155.9;" xml:space="preserve">
<style type="text/css">
	.st0{fill:#53565A;}
</style>
<g>
	<g>
		<g>
			<g>
				<path class="st0" d="M253.8,51.9l-16,34.7H248l1.8-4h12l1.8,4h10.3l-16-34.7H253.8z M252.8,75l2.8-7.5h0.5l2.8,7.5H252.8z"/>
				<path class="st0" d="M148.8,0H1.3l24.6,51.9h10.5l8.8,18.9l8.8-18.9h10.5L48.6,86.6h-6.4L75,155.9l33.4-70.5
					c-2.7,1.3-5.7,2-8.9,2c-9.8,0-18.6-7.8-18.6-18.1c0-10.3,8.8-18.1,18.6-18.1c6.6,0,12.6,2.9,16.2,8.2l-7.9,4.8
					c-1.8-2.4-4.2-4-7.9-4c-4.8,0-9,4.4-9,9.1c0,4.8,4.2,9.1,9,9.1c3.6,0,6.1-1.6,7.9-4l4.5,2.8l7.9-16.7h6.8v26.1h9.4V60.4h9.5
					v-8.5h-21.6L148.8,0z M76.5,86.6h-9.4V51.9h9.4V86.6z"/>
				<path class="st0" d="M166.6,51.1c-10.3,0-19.2,7.8-19.2,18.1c0,10.3,8.9,18.1,19.2,18.1c10.3,0,19.2-7.8,19.2-18.1
					C185.9,58.9,176.9,51.1,166.6,51.1z M166.6,78.4c-5,0-9.1-4.1-9.1-9.1c0-5,4.1-9.1,9.1-9.1c5,0,9.1,4.1,9.1,9.1
					C175.8,74.3,171.7,78.4,166.6,78.4z"/>
				<path class="st0" d="M219.1,64.5c0-7.3-5.8-12.6-13.1-12.6h-15.8v34.6h9.4v-9.4h4.4l4.3,9.4H219l-5.9-11.6
					C216.4,72.6,219.1,69.2,219.1,64.5z M205.7,68.6h-6v-8.2h6c2.1,0,3.5,2.4,3.5,4.1C209.2,66.2,207.8,68.6,205.7,68.6z"/>
				<rect x="223.7" y="51.9" class="st0" width="9.4" height="34.6"/>
			</g>
			<g>
				<g>
					<path class="st0" d="M126,112.9l3.3-1.3c0.5,1.6,1.8,2.2,3.5,2.2c1.9,0,2.8-0.9,2.8-2c0-0.9-0.4-1.5-1.9-1.7l-3.2-0.6
						c-1.9-0.4-4.2-1.5-4.2-4.6c0-2.9,2.3-4.9,6.1-4.9c2.7,0,4.9,1.3,5.9,3.4l-3.1,1c-0.5-1-1.6-1.6-2.9-1.6c-1.6,0-2.6,0.9-2.6,2
						c0,0.8,0.4,1.4,1.6,1.6l3.2,0.7c2.6,0.6,4.2,2.1,4.2,4.6c0,3.1-2.6,5-6.4,5C129.5,116.7,126.8,115.4,126,112.9z"/>
					<path class="st0" d="M149.9,115.8c-1.2,0.7-2.1,0.9-3.1,0.9c-2.8,0-4.7-1.5-4.7-4.8V107h-2.6v-2.6h2.6v-3.6h3.2v3.6h3.9v2.6
						h-3.9v4.7c0,1.4,0.7,2.1,1.7,2.1c0.5,0,1.4-0.2,2-0.6L149.9,115.8z"/>
					<path class="st0" d="M163.1,104.4v11.9h-3.2v-0.9c-1,0.8-2.3,1.3-3.9,1.3c-3,0-5.9-2.6-5.9-6.3c0-3.7,2.8-6.3,5.9-6.3
						c1.6,0,2.9,0.5,3.9,1.3v-1H163.1z M159.9,110.4c0-2.2-1.7-3.6-3.4-3.6c-1.9,0-3.3,1.4-3.3,3.6s1.4,3.6,3.3,3.6
						C158.2,113.9,159.9,112.6,159.9,110.4z"/>
					<path class="st0" d="M174.6,115.8c-1.2,0.7-2.1,0.9-3.1,0.9c-2.8,0-4.7-1.5-4.7-4.8V107h-2.6v-2.6h2.6v-3.6h3.2v3.6h3.9v2.6
						H170v4.7c0,1.4,0.7,2.1,1.7,2.1c0.5,0,1.4-0.2,2-0.6L174.6,115.8z"/>
					<path class="st0" d="M187.1,111.2H178c0.3,1.7,1.6,2.8,3.1,2.8c1,0,2-0.2,2.8-1.2l2.5,1.2c-1.1,1.8-3,2.7-5.3,2.7
						c-3.5,0-6.2-2.6-6.2-6.3c0-3.7,2.7-6.3,6.2-6.3c3.2,0,5.9,2.5,6,6.1V111.2z M178.1,109h5.8c-0.4-1.5-1.6-2.2-2.8-2.2
						C179.8,106.8,178.5,107.5,178.1,109z"/>
					<path class="st0" d="M142.3,130.6c0,4.8-3.4,8.3-8.1,8.3c-4.8,0-8.5-3.7-8.5-8.4c0-4.7,3.8-8.4,8.5-8.4c2.5,0,4.8,1,6.2,2.7
						l-2.7,1.8c-0.9-1.1-2.2-1.5-3.6-1.5c-2.9,0-5.2,2.3-5.2,5.3c0,3,2.3,5.3,5.3,5.3c2.4,0,4.3-1.4,4.8-3.7h-4.2v-3h7.3
						C142.2,129.7,142.3,130.2,142.3,130.6z"/>
					<path class="st0" d="M156.4,132.6c0,3.7-2.9,6.3-6.4,6.3c-3.6,0-6.5-2.5-6.5-6.3c0-3.7,2.9-6.3,6.5-6.3
						C153.4,126.3,156.4,128.8,156.4,132.6z M153.3,132.6c0-2.2-1.7-3.6-3.4-3.6c-1.7,0-3.4,1.3-3.4,3.6c0,2.2,1.7,3.6,3.4,3.6
						C151.6,136.1,153.3,134.8,153.3,132.6z"/>
					<path class="st0" d="M170.1,126.6l-5,11.9h-3.3l-5-11.9h3.4l3.2,8.1l3.2-8.1H170.1z"/>
					<path class="st0" d="M182.8,133.4h-9.1c0.3,1.7,1.6,2.8,3.1,2.8c1,0,2-0.2,2.8-1.2l2.5,1.2c-1.1,1.8-3,2.7-5.3,2.7
						c-3.5,0-6.2-2.6-6.2-6.3c0-3.7,2.7-6.3,6.2-6.3c3.2,0,5.9,2.5,6,6.1V133.4z M173.8,131.2h5.8c-0.4-1.5-1.6-2.2-2.8-2.2
						C175.6,129,174.2,129.7,173.8,131.2z"/>
					<path class="st0" d="M193,126.5l-0.2,3h-0.7c-2.9,0-4.3,1.8-4.3,5.1v3.8h-3.2v-11.9h3.2v2.2c1-1.4,2.3-2.3,4.3-2.3
						C192.5,126.5,192.7,126.5,193,126.5z"/>
					<path class="st0" d="M206.2,131.3v7.3H203v-6.6c0-1.7-1-2.8-2.4-2.8c-1.8,0-3,1.2-3,4.1v5.3h-3.2v-11.9h3.2v1.1
						c0.9-0.9,2.2-1.4,3.7-1.4C204.3,126.3,206.2,128.3,206.2,131.3z"/>
					<path class="st0" d="M228.3,131.1v7.5h-3.1v-6.8c0-1.6-1-2.6-2.3-2.6c-1.7,0-2.8,1.1-2.8,3.7v5.7h-3.2v-6.8
						c0-1.6-1-2.6-2.3-2.6c-1.7,0-2.7,1.1-2.7,3.7v5.7h-3.2v-11.9h3.2v1c0.8-0.8,2-1.3,3.6-1.3c1.6,0,3.1,0.7,3.9,2
						c1-1.2,2.4-2,4.3-2C226.2,126.3,228.3,128.2,228.3,131.1z"/>
					<path class="st0" d="M242.2,133.4h-9.1c0.3,1.7,1.6,2.8,3.1,2.8c1,0,2-0.2,2.8-1.2l2.5,1.2c-1.1,1.8-3,2.7-5.3,2.7
						c-3.5,0-6.2-2.6-6.2-6.3c0-3.7,2.7-6.3,6.2-6.3c3.2,0,5.9,2.5,6,6.1V133.4z M233.2,131.2h5.8c-0.4-1.5-1.6-2.2-2.8-2.2
						C234.9,129,233.6,129.7,233.2,131.2z"/>
					<path class="st0" d="M255.8,131.3v7.3h-3.2v-6.6c0-1.7-1-2.8-2.4-2.8c-1.8,0-3,1.2-3,4.1v5.3h-3.2v-11.9h3.2v1.1
						c0.9-0.9,2.2-1.4,3.7-1.4C253.8,126.3,255.8,128.3,255.8,131.3z"/>
					<path class="st0" d="M267,138c-1.2,0.7-2.1,0.9-3.1,0.9c-2.8,0-4.7-1.5-4.7-4.8v-4.9h-2.6v-2.6h2.6V123h3.2v3.6h3.9v2.6h-3.9
						v4.7c0,1.4,0.7,2.1,1.7,2.1c0.5,0,1.4-0.2,2-0.6L267,138z"/>
				</g>
			</g>
		</g>
		<g>
			<rect x="310.2" y="51.9" class="st0" width="0.7" height="86.7"/>
		</g>
	</g>
	<g>
		<path class="st0" d="M363.5,61.5c0,5.3-3.8,9.4-10.4,9.4h-6.2V52.1h6.2C359.7,52.1,363.5,56.1,363.5,61.5z M361.2,61.5
			c0-4.2-2.9-7.4-8.2-7.4h-4v14.8h4C358.3,68.9,361.2,65.6,361.2,61.5z"/>
		<path class="st0" d="M379.9,64.4H368c0.2,3.1,2.6,5,5,5c1.7,0,3.4-0.6,4.4-2.1l1.7,0.9c-1.3,2.1-3.5,3.1-6.1,3.1
			c-3.7,0-7.1-2.8-7.1-7.2c0-4.4,3.3-7.3,7.2-7.3c3.7,0,6.6,2.8,6.8,6.9V64.4z M368.1,62.8h9.6c-0.4-2.7-2.3-4.2-4.6-4.2
			C370.9,58.6,368.5,60.1,368.1,62.8z"/>
		<path class="st0" d="M397.1,64c0,4.4-3.2,7.3-6.9,7.3c-2.3,0-4.3-0.9-5.5-2.6v7h-2.1V57h2.1v2.2c1.2-1.6,3.2-2.6,5.5-2.6
			C393.9,56.7,397.1,59.6,397.1,64z M395.1,64c0-3.3-2.3-5.4-5.2-5.4c-2.6,0-5.2,2.1-5.2,5.4c0,3.3,2.6,5.4,5.2,5.4
			C392.8,69.3,395.1,67.3,395.1,64z"/>
		<path class="st0" d="M414.1,57v13.8H412v-2.2c-1.3,1.6-3.2,2.5-5.5,2.5c-3.7,0-6.9-2.9-6.9-7.3s3.2-7.3,6.9-7.3
			c2.3,0,4.2,0.9,5.5,2.5V57H414.1z M412,64.4v-0.8c-0.2-3.1-2.7-5-5.2-5c-2.9,0-5.2,2.1-5.2,5.4c0,3.3,2.3,5.4,5.2,5.4
			C409.3,69.3,411.8,67.4,412,64.4z"/>
		<path class="st0" d="M425.6,57l-0.2,2c-0.3,0-0.6,0-0.8,0c-3.7,0-5.6,2.8-5.6,6.5v5.3h-2.2V57h2.2v3.4c1.1-2,3-3.6,5.6-3.6
			C424.9,56.9,425.2,56.9,425.6,57z"/>
		<path class="st0" d="M438.2,70.1c-1.1,0.8-2.1,1.1-3.2,1.1c-2.7,0-4.6-1.6-4.6-4.7v-7.7h-3V57h3v-4.4h2.2V57h4.9v1.8h-4.9v7.6
			c0,1.8,1,2.8,2.6,2.8c0.8,0,1.7-0.3,2.4-0.8L438.2,70.1z"/>
		<path class="st0" d="M462.5,61.9v8.9h-2.1v-8.6c0-2.2-1.5-3.6-3.6-3.6c-2.6,0-4.2,1.9-4.2,5.1v7.1h-2.1v-8.6
			c0-2.2-1.5-3.6-3.5-3.6c-2.6,0-4.2,1.9-4.2,5.1v7.1h-2.1V57h2.1v2.1c1-1.5,2.6-2.4,4.7-2.4c2.1,0,3.9,1,4.7,2.8
			c1.1-1.7,2.9-2.8,5.2-2.8C460.3,56.7,462.5,58.8,462.5,61.9z"/>
		<path class="st0" d="M479.1,64.4h-11.9c0.2,3.1,2.6,5,5,5c1.7,0,3.4-0.6,4.4-2.1l1.7,0.9c-1.3,2.1-3.5,3.1-6.1,3.1
			c-3.7,0-7.1-2.8-7.1-7.2c0-4.4,3.3-7.3,7.2-7.3c3.7,0,6.6,2.8,6.8,6.9V64.4z M467.3,62.8h9.6c-0.4-2.7-2.3-4.2-4.6-4.2
			C470.1,58.6,467.7,60.1,467.3,62.8z"/>
		<path class="st0" d="M494.7,62.6v8.3h-2.1V63c0-2.6-1.5-4.3-3.8-4.3c-2.9,0-4.8,2-4.8,5.6v6.6h-2.1V57h2.1v2.3
			c1.1-1.7,2.9-2.6,5.2-2.6C492.5,56.7,494.7,59.1,494.7,62.6z"/>
		<path class="st0" d="M507.3,70.1c-1.1,0.8-2.1,1.1-3.2,1.1c-2.7,0-4.6-1.6-4.6-4.7v-7.7h-3V57h3v-4.4h2.2V57h4.9v1.8h-4.9v7.6
			c0,1.8,1,2.8,2.6,2.8c0.8,0,1.7-0.3,2.4-0.8L507.3,70.1z"/>
		<path class="st0" d="M361,97.6c0,4.2-3.3,7.3-7.3,7.3c-4.1,0-7.3-3-7.3-7.3c0-4.2,3.2-7.2,7.3-7.2C357.7,90.4,361,93.4,361,97.6z
			 M358.9,97.6c0-3.2-2.4-5.3-5.2-5.3c-2.9,0-5.3,2.2-5.3,5.3c0,3.2,2.4,5.4,5.3,5.4C356.5,103,358.9,100.8,358.9,97.6z"/>
		<path class="st0" d="M367.1,90.7h4.5v1.8h-4.5v12h-2.1v-12h-2.9v-1.8h2.9v-2c0-2.9,1.9-4.8,4.7-4.8c0.8,0,1.6,0.2,2.2,0.5
			l-0.5,1.7c-0.5-0.2-1.1-0.3-1.6-0.3c-1.7,0-2.7,1.1-2.7,2.9V90.7z"/>
		<path class="st0" d="M396.9,87.7h-7v16.8h-2.2V87.7h-7v-2h16.2V87.7z"/>
		<path class="st0" d="M405.8,90.7l-0.2,2c-0.3,0-0.6,0-0.8,0c-3.7,0-5.6,2.8-5.6,6.5v5.3h-2.2V90.7h2.2v3.4c1.1-2,3-3.6,5.6-3.6
			C405.1,90.6,405.4,90.6,405.8,90.7z"/>
		<path class="st0" d="M421.3,90.7v13.8h-2.1v-2.2c-1.3,1.6-3.2,2.5-5.5,2.5c-3.7,0-6.9-2.9-6.9-7.3s3.2-7.3,6.9-7.3
			c2.3,0,4.2,0.9,5.5,2.5v-2.2H421.3z M419.1,98.1v-0.8c-0.2-3.1-2.7-5-5.2-5c-2.9,0-5.2,2.1-5.2,5.4c0,3.3,2.3,5.4,5.2,5.4
			C416.5,103,418.9,101.1,419.1,98.1z"/>
		<path class="st0" d="M437.1,96.3v8.3H435v-7.9c0-2.6-1.5-4.3-3.8-4.3c-2.9,0-4.8,2-4.8,5.6v6.6h-2.1V90.7h2.1V93
			c1.1-1.7,2.9-2.6,5.2-2.6C434.9,90.4,437.1,92.8,437.1,96.3z"/>
		<path class="st0" d="M445.5,103.1c2,0,3.3-0.9,3.3-2.4c0-1.2-0.9-1.7-2.3-2l-3-0.7c-2.3-0.5-3.6-1.6-3.6-3.5
			c0-2.5,2.1-4.2,5.2-4.2c2.7,0,4.6,1.2,5.4,3.1l-2,0.6c-0.5-1.2-1.7-1.9-3.4-1.9c-2,0-3.1,1-3.1,2.3c0,1.1,0.8,1.6,2.1,1.9l3.2,0.7
			c2,0.5,3.6,1.5,3.6,3.6c0,2.7-2.3,4.3-5.6,4.3c-2.9,0-5.2-1.1-5.9-3.3l2-0.8C442,102.3,443.5,103.1,445.5,103.1z"/>
		<path class="st0" d="M468.2,97.6c0,4.4-3.2,7.3-6.9,7.3c-2.3,0-4.3-0.9-5.5-2.6v7h-2.1V90.7h2.1v2.2c1.2-1.6,3.2-2.6,5.5-2.6
			C465,90.4,468.2,93.3,468.2,97.6z M466.1,97.6c0-3.3-2.3-5.4-5.2-5.4c-2.6,0-5.2,2.1-5.2,5.4c0,3.3,2.6,5.4,5.2,5.4
			C463.8,103,466.1,100.9,466.1,97.6z"/>
		<path class="st0" d="M485.1,97.6c0,4.2-3.3,7.3-7.3,7.3c-4.1,0-7.3-3-7.3-7.3c0-4.2,3.2-7.2,7.3-7.2
			C481.9,90.4,485.1,93.4,485.1,97.6z M483,97.6c0-3.2-2.4-5.3-5.2-5.3c-2.9,0-5.3,2.2-5.3,5.3c0,3.2,2.4,5.4,5.3,5.4
			C480.7,103,483,100.8,483,97.6z"/>
		<path class="st0" d="M496.3,90.7l-0.2,2c-0.3,0-0.6,0-0.8,0c-3.7,0-5.6,2.8-5.6,6.5v5.3h-2.2V90.7h2.2v3.4c1.1-2,3-3.6,5.6-3.6
			C495.7,90.6,495.9,90.6,496.3,90.7z"/>
		<path class="st0" d="M508.9,103.8c-1.1,0.8-2.1,1.1-3.2,1.1c-2.7,0-4.6-1.6-4.6-4.7v-7.7h-3v-1.8h3v-4.4h2.2v4.4h4.9v1.8h-4.9v7.6
			c0,1.8,1,2.8,2.6,2.8c0.8,0,1.7-0.3,2.4-0.8L508.9,103.8z"/>
		<path class="st0" d="M360.7,124.4v13.8h-2.1V136c-1.3,1.6-3.2,2.5-5.5,2.5c-3.7,0-6.9-2.9-6.9-7.3c0-4.4,3.2-7.3,6.9-7.3
			c2.3,0,4.2,0.9,5.5,2.5v-2.2H360.7z M358.6,131.7v-0.8c-0.2-3.1-2.7-5-5.2-5c-2.9,0-5.2,2.1-5.2,5.4c0,3.3,2.3,5.4,5.2,5.4
			C355.9,136.7,358.3,134.7,358.6,131.7z"/>
		<path class="st0" d="M376.4,129.9v8.3h-2.1v-7.9c0-2.6-1.5-4.3-3.8-4.3c-2.9,0-4.8,2-4.8,5.6v6.6h-2.1v-13.8h2.1v2.3
			c1.1-1.7,2.9-2.6,5.2-2.6C374.2,124,376.4,126.4,376.4,129.9z"/>
		<path class="st0" d="M393.6,118v20.2h-2.1V136c-1.3,1.6-3.2,2.5-5.5,2.5c-3.7,0-6.9-2.9-6.9-7.3c0-4.4,3.2-7.3,6.9-7.3
			c2.3,0,4.2,0.9,5.5,2.5V118H393.6z M391.4,131.7v-0.8c-0.2-3.1-2.7-5-5.2-5c-2.9,0-5.2,2.1-5.2,5.4c0,3.3,2.3,5.4,5.2,5.4
			C388.8,136.7,391.2,134.7,391.4,131.7z"/>
		<path class="st0" d="M418.3,125.2c0,3.4-2.5,5.8-6.5,5.8h-6v7.1h-2.2v-18.8h8.2C415.7,119.4,418.3,121.8,418.3,125.2z
			 M416.1,125.2c0-2.2-1.7-3.8-4.3-3.8h-6v7.7h6C414.4,129.1,416.1,127.5,416.1,125.2z"/>
		<path class="st0" d="M422.8,138.2h-1.1h-1.1v-10.1V118h1.1h1.1v10.1V138.2z"/>
		<path class="st0" d="M439.9,124.4v13.8h-2.1V136c-1.3,1.6-3.2,2.5-5.5,2.5c-3.7,0-6.9-2.9-6.9-7.3c0-4.4,3.2-7.3,6.9-7.3
			c2.3,0,4.2,0.9,5.5,2.5v-2.2H439.9z M437.8,131.7v-0.8c-0.2-3.1-2.7-5-5.2-5c-2.9,0-5.2,2.1-5.2,5.4c0,3.3,2.3,5.4,5.2,5.4
			C435.1,136.7,437.5,134.7,437.8,131.7z"/>
		<path class="st0" d="M455.7,129.9v8.3h-2.1v-7.9c0-2.6-1.5-4.3-3.8-4.3c-2.9,0-4.8,2-4.8,5.6v6.6h-2.1v-13.8h2.1v2.3
			c1.1-1.7,2.9-2.6,5.2-2.6C453.5,124,455.7,126.4,455.7,129.9z"/>
		<path class="st0" d="M471.5,129.9v8.3h-2.1v-7.9c0-2.6-1.5-4.3-3.8-4.3c-2.9,0-4.8,2-4.8,5.6v6.6h-2.1v-13.8h2.1v2.3
			c1.1-1.7,2.9-2.6,5.2-2.6C469.2,124,471.5,126.4,471.5,129.9z"/>
		<path class="st0" d="M476.9,120.2c0,0.8-0.6,1.4-1.5,1.4c-0.8,0-1.5-0.6-1.5-1.4c0-0.8,0.6-1.4,1.5-1.4
			C476.3,118.8,476.9,119.4,476.9,120.2z M476.6,138.2h-2.2v-13.8h2.2V138.2z"/>
		<path class="st0" d="M492.4,129.9v8.3h-2.1v-7.9c0-2.6-1.5-4.3-3.8-4.3c-2.9,0-4.8,2-4.8,5.6v6.6h-2.1v-13.8h2.1v2.3
			c1.1-1.7,2.9-2.6,5.2-2.6C490.2,124,492.4,126.4,492.4,129.9z"/>
		<path class="st0" d="M508.9,137.1c0,4-3.1,6.5-7.2,6.5c-2.6,0-4.8-0.9-6-2.4l1.4-1.6c1,1.2,2.5,2,4.5,2c3,0,5.2-1.9,5.2-4.8v-1.7
			c-1.1,1.5-2.9,2.3-5.2,2.3c-3.6,0-6.8-2.8-6.8-6.7c0-3.9,3.2-6.6,6.8-6.6c2.3,0,4.1,0.8,5.2,2.3v-1.9h2.1L508.9,137.1z
			 M506.8,130.7c0-2.9-2.3-4.8-4.9-4.8c-2.8,0-5,1.9-5,4.8c0,2.9,2.2,4.9,5,4.9C504.5,135.5,506.8,133.6,506.8,130.7z"/>
	</g>
</g>
</svg>
